<svg width="102" height="33" viewBox="0 0 102 33" fill="none" xmlns="http://www.w3.org/2000/svg">
<path d="M29.2402 23.1799C29.0802 22.7899 28.9302 22.3799 28.7702 22.0299L28.0302 20.3599L28.0002 20.3299C25.8002 15.5299 23.4502 10.6499 20.9602 5.84994L20.8602 5.64994C20.6102 5.17994 20.3602 4.65994 20.1002 4.17994C19.7802 3.60994 19.4702 2.99994 18.9602 2.41994C18.4631 1.81308 17.8374 1.32413 17.1284 0.988399C16.4194 0.652666 15.6447 0.478516 14.8602 0.478516C14.0757 0.478516 13.301 0.652666 12.592 0.988399C11.883 1.32413 11.2573 1.81308 10.7602 2.41994C10.2902 2.99994 9.9402 3.60994 9.6202 4.17994C9.3702 4.69994 9.1202 5.20994 8.8602 5.67994L8.7602 5.87994C6.3102 10.6799 3.9202 15.5599 1.7202 20.3599L1.6602 20.4199C1.4402 20.9399 1.1802 21.4799 0.930203 22.0599C0.770203 22.4099 0.610203 22.7899 0.450203 23.2099C0.0182357 24.3097 -0.119705 25.5031 0.0499754 26.6724C0.219656 27.8418 0.691101 28.9467 1.41785 29.8784C2.14459 30.81 3.10156 31.5362 4.19443 31.9854C5.2873 32.4346 6.47835 32.5912 7.6502 32.4399C8.77367 32.2921 9.85548 31.9178 10.8302 31.3399C12.1302 30.6099 13.3802 29.5499 14.7802 28.0199C16.1802 29.5499 17.4602 30.6099 18.7302 31.3499C19.9515 32.0668 21.3346 32.4624 22.7502 32.4999C24.3896 32.5068 25.976 31.9202 27.2167 30.8487C28.4573 29.7771 29.2684 28.2928 29.5002 26.6699C29.768 25.5037 29.6774 24.2838 29.2402 23.1699V23.1799ZM14.8802 24.8399C13.1602 22.6399 12.0402 20.6199 11.6602 18.8899C11.5028 18.2489 11.4688 17.5837 11.5602 16.9299C11.6302 16.4199 11.8202 15.9699 12.0802 15.5899C12.6802 14.7199 13.7302 14.1799 14.8802 14.1799C15.4263 14.1633 15.9681 14.2824 16.4568 14.5268C16.9455 14.7711 17.3659 15.133 17.6802 15.5799C17.9402 15.9799 18.1302 16.4199 18.1902 16.9299C18.2902 17.5099 18.2502 18.1799 18.0902 18.8899C17.7102 20.5899 16.5902 22.6299 14.8802 24.8399ZM27.6202 26.3199C27.5066 27.1439 27.1791 27.9237 26.6702 28.5816C26.1614 29.2396 25.4891 29.7527 24.7202 30.0699C23.9602 30.3899 23.1202 30.4799 22.3002 30.3899C21.5002 30.2899 20.7002 30.0299 19.8802 29.5499C18.5187 28.7084 17.2945 27.6629 16.2502 26.4499C18.3502 23.8499 19.6202 21.4799 20.1002 19.3699C20.3302 18.3699 20.3602 17.4699 20.2602 16.6399C20.1353 15.8532 19.842 15.1028 19.4002 14.4399C18.8958 13.7212 18.2225 13.1374 17.4396 12.7398C16.6567 12.3423 15.7881 12.1431 14.9102 12.1599C13.0602 12.1599 11.4102 13.0199 10.4102 14.4299C9.96004 15.0911 9.66911 15.8475 9.5602 16.6399C9.4302 17.4799 9.4602 18.4099 9.7202 19.3699C10.2002 21.4799 11.5002 23.8799 13.5702 26.4699C12.5437 27.7061 11.3166 28.7608 9.9402 29.5899C9.1102 30.0699 8.3202 30.3199 7.5202 30.4199C6.27609 30.5793 5.01935 30.2412 4.02316 29.4791C3.02698 28.7169 2.37186 27.5924 2.2002 26.3499C2.1002 25.5499 2.1702 24.7499 2.4902 23.8499C2.5902 23.5299 2.7402 23.2099 2.9002 22.8299C3.1202 22.3099 3.3802 21.7699 3.6302 21.2299L3.6702 21.1599C5.8302 16.3899 8.1902 11.5199 10.6402 6.74994L10.7402 6.54994C10.9902 6.06994 11.2402 5.55994 11.5002 5.07994C11.7602 4.56994 12.0402 4.07994 12.4002 3.67994C12.7118 3.30797 13.1012 3.00882 13.5409 2.80356C13.9806 2.59831 14.4599 2.49193 14.9452 2.49193C15.4305 2.49193 15.9098 2.59831 16.3495 2.80356C16.7892 3.00882 17.1786 3.30797 17.4902 3.67994C17.8402 4.07994 18.1302 4.56994 18.3902 5.07994C18.6402 5.55994 18.8902 6.07995 19.1502 6.54994L19.2502 6.74994C21.6902 11.5199 24.0502 16.3899 26.2502 21.1599L26.2802 21.1899C26.5402 21.7099 26.7602 22.2899 27.0102 22.7899C27.1702 23.1799 27.3302 23.4899 27.4302 23.8199C27.6202 24.7199 27.7202 25.5199 27.6202 26.3199ZM41.5402 24.6199C40.7867 24.631 40.0403 24.4722 39.3565 24.1554C38.6727 23.8386 38.069 23.3719 37.5902 22.7899C36.5143 21.5499 35.9432 19.951 35.9902 18.3099C35.9737 16.6332 36.5632 15.0068 37.6502 13.7299C38.153 13.1406 38.7789 12.6686 39.4838 12.3472C40.1887 12.0259 40.9555 11.8629 41.7302 11.8699C42.4591 11.85 43.1812 12.0157 43.8284 12.3516C44.4757 12.6875 45.0269 13.1824 45.4302 13.7899L45.5302 12.2199H48.4502V24.2999H45.5202L45.4202 22.5399C45.0044 23.1886 44.4296 23.7202 43.7505 24.0842C43.0715 24.4483 42.3106 24.6327 41.5402 24.6199ZM42.3002 21.7399C42.8802 21.7399 43.3902 21.5799 43.8702 21.2899C44.3102 20.9699 44.6702 20.5499 44.9502 20.0399C45.2002 19.5299 45.3302 18.9199 45.3302 18.2399C45.3692 17.6493 45.2542 17.0587 44.9966 16.5259C44.7389 15.993 44.3473 15.5361 43.8602 15.1999C43.3921 14.9083 42.8517 14.7537 42.3002 14.7537C41.7487 14.7537 41.2083 14.9083 40.7402 15.1999C40.3002 15.5199 39.9402 15.9399 39.6602 16.4499C39.3958 17.0124 39.2657 17.6286 39.2802 18.2499C39.2412 18.8405 39.3562 19.4312 39.6138 19.964C39.8715 20.4969 40.2631 20.9538 40.7502 21.2899C41.2202 21.5799 41.7302 21.7399 42.3002 21.7399ZM53.4502 8.95994C53.4502 9.30995 53.3902 9.62994 53.2302 9.88995C53.0702 10.1399 52.8502 10.3699 52.5602 10.5299C52.2702 10.6899 51.9602 10.7499 51.6402 10.7499C51.3202 10.7499 51.0002 10.6899 50.7102 10.5299C50.4359 10.3773 50.2053 10.1569 50.0402 9.88995C49.8853 9.60508 49.8094 9.28401 49.8202 8.95994C49.8202 8.59995 49.8902 8.27994 50.0402 8.02994C50.2002 7.72994 50.4302 7.54994 50.7102 7.38994C51.0002 7.22994 51.3102 7.15994 51.6402 7.15994C51.9585 7.15261 52.2733 7.228 52.5537 7.37874C52.8342 7.52948 53.0707 7.75042 53.2402 8.01994C53.3857 8.31149 53.4578 8.63418 53.4502 8.95994ZM50.0502 24.2599V12.1999H53.2302V24.2799H50.0402L50.0502 24.2599ZM61.7302 15.3599V15.3999C61.5802 15.3299 61.3802 15.2999 61.2302 15.2699C61.0302 15.2299 60.8702 15.2299 60.6802 15.2299C59.7902 15.2299 59.1202 15.4899 58.6802 16.0299C58.2002 16.5799 57.9802 17.3499 57.9802 18.3399V24.2699H54.7902V12.1899H57.7202L57.8202 14.0199C58.1402 13.3799 58.5202 12.8999 59.0602 12.5399C59.5973 12.1902 60.2297 12.0155 60.8702 12.0399C61.1002 12.0399 61.3202 12.0599 61.5102 12.0999C61.6102 12.1299 61.6702 12.1299 61.7302 12.1599V15.3599ZM63.0102 24.2599V7.23994H66.1902V13.7399C66.6402 13.1599 67.1502 12.7099 67.7902 12.3599C68.8034 11.8632 69.9544 11.7223 71.0575 11.9599C72.1606 12.1976 73.1515 12.8 73.8702 13.6699C74.9485 14.9125 75.5197 16.5154 75.4702 18.1599C75.4867 19.8367 74.8972 21.4631 73.8102 22.7399C73.3074 23.3293 72.6815 23.8013 71.9766 24.1227C71.2717 24.444 70.5049 24.6069 69.7302 24.5999C69.0013 24.6199 68.2792 24.4541 67.632 24.1183C66.9847 23.7824 66.4335 23.2875 66.0302 22.6799L65.9302 24.2499L63.0102 24.2799V24.2599ZM69.1602 21.7399C69.7302 21.7399 70.2402 21.5799 70.7202 21.2899C71.1602 20.9699 71.5202 20.5499 71.8002 20.0399C72.0602 19.5299 72.1802 18.9199 72.1802 18.2399C72.1802 17.5699 72.0602 16.9599 71.8002 16.4499C71.5376 15.9582 71.1686 15.5312 70.7202 15.1999C70.2521 14.9083 69.7117 14.7537 69.1602 14.7537C68.6087 14.7537 68.0683 14.9083 67.6002 15.1999C67.1502 15.5199 66.8002 15.9399 66.5102 16.4499C66.2458 17.0124 66.1157 17.6286 66.1302 18.2499C66.0912 18.8405 66.2062 19.4312 66.4639 19.964C66.7215 20.4969 67.1131 20.9538 67.6002 21.2899C68.0702 21.5799 68.5802 21.7399 69.1602 21.7399ZM76.6702 24.2699V12.1899H79.6002L79.7002 13.7599C80.0684 13.1581 80.5907 12.6656 81.2131 12.3333C81.8354 12.001 82.5353 11.8411 83.2402 11.8699C84.0463 11.856 84.8386 12.0801 85.5181 12.5141C86.1975 12.948 86.7339 13.5727 87.0602 14.3099C87.4102 15.0699 87.6002 16.0099 87.6002 17.0599V24.2999H84.4102V17.4799C84.4102 16.6399 84.2202 15.9799 83.8402 15.4899C83.4602 15.0099 82.9402 14.7499 82.2802 14.7499C81.8002 14.7499 81.3802 14.8499 81.0102 15.0699C80.6602 15.2999 80.3702 15.5899 80.1502 15.9999C79.9278 16.4144 79.8175 16.8798 79.8302 17.3499V24.2699H76.6702ZM89.1902 24.2699V7.22994H92.3802V13.7299C92.8123 13.1467 93.3744 12.6722 94.0219 12.3441C94.6693 12.0161 95.3844 11.8434 96.1102 11.8399C96.8637 11.8289 97.6101 11.9877 98.2939 12.3045C98.9777 12.6213 99.5814 13.088 100.06 13.6699C101.131 14.9125 101.698 16.5105 101.65 18.1499C101.668 19.8269 101.078 21.4536 99.9902 22.7299C99.4874 23.3193 98.8615 23.7913 98.1566 24.1127C97.4517 24.434 96.6849 24.5969 95.9102 24.5899C95.1813 24.6099 94.4592 24.4441 93.812 24.1083C93.1647 23.7724 92.6135 23.2775 92.2102 22.6699L92.1202 24.2399L89.1902 24.2699ZM95.3702 21.7399C95.9502 21.7399 96.4602 21.5799 96.9302 21.2899C97.3802 20.9699 97.7302 20.5499 98.0202 20.0399C98.2702 19.5299 98.4002 18.9199 98.4002 18.2399C98.4392 17.6493 98.3242 17.0587 98.0666 16.5259C97.8089 15.993 97.4173 15.5361 96.9302 15.1999C96.4621 14.9083 95.9217 14.7537 95.3702 14.7537C94.8187 14.7537 94.2783 14.9083 93.8102 15.1999C93.3702 15.5199 93.0102 15.9399 92.7302 16.4499C92.4511 17.0074 92.3202 17.6273 92.3502 18.2499C92.3112 18.8405 92.4262 19.4312 92.6839 19.964C92.9415 20.4969 93.3331 20.9538 93.8202 21.2899C94.2902 21.5799 94.7702 21.7399 95.3702 21.7399Z" fill="#DE3151"/>
</svg>
